<svg xmlns="http://www.w3.org/2000/svg" width="260" height="37" fill="none" viewBox="0 0 260 37"><g clip-path="url(#clip0)"><path fill="#00458A" d="M6.55 2C2.543 2 1.695 3.613 1.695 8.145v1.382h11.56v1.613H1.694v7.989H.54V7.99C.54 2.921 1.695.464 6.396.464h8.553V2h-8.4z"/><path fill="#00458A" d="M6.395.002C1.155.002.153 3.075.153 7.991v11.521h2.004v-7.988h11.559V9.066H2.156v-.999c0-4.608.848-5.76 4.47-5.76h8.785V.001H6.395zM.924 7.991C.924 2.614 2.31.847 6.395.847h8.245v.691H6.55c-4.47 0-5.241 2.151-5.241 6.53V9.91h11.559v.768H1.309v7.988H.924V7.991zM24.812 2c-4.007 0-4.855 1.613-4.855 6.145v10.984h-1.233V7.99c0-5.07 1.156-7.527 5.857-7.527h7.937V2h-7.706z"/><path fill="#00458A" d="M24.66.002c-5.241 0-6.32 3.073-6.32 7.989v11.521h2.004V8.144c0-4.609.847-5.76 4.47-5.76h8.245V.001h-8.4zm-5.472 7.989c0-5.377 1.387-7.144 5.471-7.144h7.552v.691h-7.398c-4.47 0-5.24 2.151-5.24 6.53v10.6h-.385V7.99zm17.8 3.687c.231 4.071 1.541 5.838 5.703 5.838h9.786v1.613H42.46c-5.626 0-6.782-3.61-6.782-9.371 0-5.454 1.002-9.371 6.782-9.371h5.625c3.699 0 5.009 1.69 5.009 5.607 0 3.457-.925 5.607-4.932 5.607l-11.174.077zM42.691 2c-4.778 0-5.78 2.535-5.78 7.835v.153h10.866c3.16 0 4.084-.921 4.084-3.917C51.86 3.075 51.013 2 47.777 2H42.69z"/><path fill="#00458A" d="M42.538.002c-6.011 0-7.167 3.918-7.167 9.755 0 5.838 1.233 9.755 7.167 9.755H52.94v-2.458H42.69c-3.621 0-5.008-1.229-5.316-4.992h10.788c4.7 0 5.317-2.996 5.317-5.992 0-4.301-1.541-6.068-5.394-6.068h-5.548zm-6.473 9.755c0-5.53 1.079-8.91 6.396-8.91h5.625c3.468 0 4.624 1.383 4.624 5.223 0 3.226-.771 5.147-4.547 5.147H36.527v.46c.308 4.532 1.926 6.222 6.165 6.222h9.401v.768h-9.555c-5.394 0-6.473-3.38-6.473-8.91z"/><path fill="#00458A" d="M42.69 1.54c-5.24 0-6.165 2.918-6.165 8.218v.615h11.25c3.314 0 4.47-1.152 4.47-4.379 0-3.226-1.156-4.455-4.47-4.455H42.69zm0 .844h5.163c3.082 0 3.622 1.153 3.622 3.687 0 2.765-.77 3.534-3.7 3.534h-10.48c0-4.916.848-7.22 5.395-7.22zm25.738 6.068c3.93 0 4.932 1.767 4.932 5.3 0 3.995-1.464 5.377-5.01 5.377H57.255v-1.69H68.12c3.16 0 4.007-.614 4.007-3.687 0-3.072-.925-3.763-4.084-3.763h-6.859c-3.236 0-4.392-1.383-4.392-4.916 0-2.996 1.079-4.763 4.392-4.763h11.482V2h-11.25c-2.852 0-3.391.922-3.391 3.073 0 2.304.462 3.303 3.39 3.303h7.013v.076z"/><path fill="#00458A" d="M61.186.002c-3.237 0-4.778 1.613-4.778 5.147 0 3.84 1.31 5.3 4.778 5.3h6.858c3.005 0 3.699.614 3.699 3.302 0 2.689-.617 3.303-3.622 3.303h-11.25v2.458h11.481c3.93 0 5.394-1.613 5.394-5.76 0-3.457-.924-5.685-5.317-5.685h-7.012c-2.697 0-3.006-.845-3.006-2.918 0-1.844.309-2.689 3.006-2.689H73.13V.002H61.186zm-3.93 5.147c0-2.996 1.233-4.302 4.007-4.302h11.096v.845H61.417c-3.16 0-3.776 1.229-3.776 3.533 0 2.458.616 3.687 3.776 3.687h7.012c3.853 0 4.547 1.767 4.547 4.84 0 3.686-1.156 4.915-4.624 4.915H57.641v-.845h10.48c3.16 0 4.392-.537 4.392-4.07 0-3.15-1.078-4.148-4.469-4.148h-6.858c-2.929 0-3.93-1.076-3.93-4.455zm20.729 13.98V.387h1.233v8.372H92.78V.387h1.233v18.665H92.78V10.45H79.217v8.68h-1.232z"/><path fill="#00458A" d="M92.394.002v8.373H79.602V.002h-2.004v19.51h2.004V10.91h12.792v8.68h2.004V.002h-2.004zm1.233.845v17.897h-.462v-8.68H78.83v8.68h-.462V.847h.463V9.22h14.333V.847h.462zm12.022 17.744c-5.702 0-6.781-3.457-6.781-8.757s1.002-8.756 6.781-8.756h9.71v1.536h-9.556c-4.777 0-5.779 2.381-5.779 7.22 0 4.993 1.079 7.22 5.779 7.22h9.556v1.537h-9.71z"/><path fill="#00458A" d="M105.648.002c-6.858 0-7.783 4.686-7.783 9.755 0 5.07.925 9.755 7.783 9.755h10.712V15.98h-10.557c-3.776 0-4.855-1.383-4.855-6.299s1.002-6.298 4.855-6.298h10.557V.002h-10.712zm14.874 11.522c.231 3.84 1.541 5.53 5.702 5.53h9.787v1.537h-10.018c-5.626 0-6.781-3.38-6.781-8.757 0-5.146 1.078-8.756 6.781-8.756h5.625c3.699 0 5.009 1.536 5.009 5.3 0 3.226-.925 5.223-4.932 5.223l-11.173-.077zm5.702-9.063c-4.778 0-5.779 2.38-5.779 7.297v.23h10.865c3.159 0 4.084-.922 4.084-3.687 0-2.765-.848-3.84-4.007-3.84h-5.163z"/><path fill="#00458A" d="M126.069.002c-6.859 0-7.783 4.916-7.783 9.755 0 4.84.924 9.755 7.783 9.755h10.942v-3.456h-10.788c-3.082 0-4.238-.845-4.624-3.534h10.095c5.24 0 5.934-3.302 5.934-6.221 0-4.302-1.85-6.299-6.011-6.299h-5.548zm-5.857 9.755c0-5.837 1.464-7.835 5.857-7.835h5.625c3.083 0 4.084 1.076 4.084 4.302 0 3.226-1.001 4.301-4.007 4.301h-11.559v-.768z"/><path fill="#00458A" d="M126.223 1.463c-5.625 0-6.781 3.15-6.781 8.296v1.152h11.867c3.622 0 5.086-1.306 5.086-4.686s-1.387-4.839-5.009-4.839l-5.163.077zm0 1.92h5.086c2.62 0 3.083.615 3.083 2.842 0 2.228-.386 2.689-3.083 2.689h-9.941c.155-4.225 1.31-5.53 4.855-5.53zm29.283 13.749v1.46h-8.708c-4.7 0-5.856-2.382-5.856-7.067V1h1.233v10.37c0 4.301.847 5.76 4.854 5.76h8.477z"/><path fill="#00458A" d="M139.941.002v11.445c0 4.225.848 8.065 6.859 8.065h9.709v-3.38h-9.555c-3.237 0-3.853-.844-3.853-4.839V.003h-3.16zm33.596 17.13v1.46h-8.707c-4.701 0-5.857-2.382-5.857-7.067V1h1.233v10.37c0 4.301.848 5.76 4.855 5.76h8.476z"/><path fill="#00458A" d="M157.973.002v11.445c0 4.225.847 8.065 6.858 8.065h9.632v-3.38h-9.478c-3.236 0-3.853-.844-3.853-4.839V.003h-3.159zm30.36 8.604c3.93 0 4.932 1.69 4.932 4.992 0 3.764-1.464 4.993-5.009 4.993h-11.02v-1.536h10.866c3.159 0 4.007-.538 4.007-3.457 0-2.765-.925-3.533-4.084-3.533h-6.859c-3.236 0-4.392-1.306-4.392-4.608 0-2.842 1.079-4.456 4.392-4.456h11.482v1.537h-11.25c-2.852 0-3.391.921-3.391 2.919 0 2.15.462 3.149 3.391 3.149h6.935z"/><path fill="#00458A" d="M181.168.002c-3.545 0-5.394 1.844-5.394 5.454 0 3.917 1.618 5.53 5.317 5.53h6.935c2.851 0 3.082.461 3.082 2.535 0 2.074-.231 2.458-3.082 2.458h-11.79v3.533h12.021c4.239 0 6.011-1.766 6.011-5.991s-1.772-5.915-5.934-5.915h-7.012c-2.389 0-2.389-.537-2.389-2.15 0-1.383 0-1.92 2.389-1.92h12.252V.001h-12.406z"/><path fill="#0066AC" d="M5.702 33.57h-.925l.077-.845c-.17.285-.408.522-.693.691a3.35 3.35 0 0 1-1.464.308 2.394 2.394 0 0 1-2.003-.692 2.512 2.512 0 0 1-.54-1.228A11.361 11.361 0 0 1 0 30.19c.013-.566.064-1.13.154-1.69.084-.375.27-.72.54-.998a2.823 2.823 0 0 1 1.849-.614 3.78 3.78 0 0 1 1.618.307c.238.145.426.36.54.614v-3.687h.924l.077 9.448zm-4.238-5.53c-.309.307-.463.998-.463 2.15a4.413 4.413 0 0 0 .386 2.228 1.706 1.706 0 0 0 1.464.461 1.934 1.934 0 0 0 1.541-.537 4.381 4.381 0 0 0 .308-2.228c.08-.7-.083-1.404-.462-1.998a2.379 2.379 0 0 0-1.464-.46 2.019 2.019 0 0 0-1.31.384zm8.938-2.842h-.925v-1.076h.925v1.076zm0 8.372h-.925v-6.606h.925v6.606zm9.324.383a3.06 3.06 0 0 1-.308 1.613 2.1 2.1 0 0 1-.925.691 5.786 5.786 0 0 1-3.237 0 1.538 1.538 0 0 1-.924-1.229c0-.23-.077-.537-.077-.768h.924c.014.338.066.673.154.999a.844.844 0 0 0 .694.307c.308 0 .54.077.848.077.39-.013.776-.065 1.155-.154a.973.973 0 0 0 .617-.845c0-.153.077-.384.077-.537V32.8l-.231.46a.655.655 0 0 1-.385.231c-.474.152-.968.23-1.465.23a2.533 2.533 0 0 1-1.926-.614 2.423 2.423 0 0 1-.617-1.152 9.255 9.255 0 0 1-.077-1.46c-.037-.724.04-1.45.232-2.15a1.91 1.91 0 0 1 1.156-1.152 2.872 2.872 0 0 1 1.387-.154 3.14 3.14 0 0 1 1.464.307c.262.174.474.412.616.692l-.077-.922h.925v6.836zm-4.315-5.838c-.217.287-.326.64-.309.999 0 .307-.077.691-.077 1.075a7.51 7.51 0 0 0 .154 1.844c.052.244.188.461.386.614.4.218.853.325 1.31.308a1.766 1.766 0 0 0 1.464-.538c.17-.28.276-.595.308-.922.064-.406.09-.818.077-1.229a4.732 4.732 0 0 0-.154-1.46 1.207 1.207 0 0 0-.771-.844 4.525 4.525 0 0 0-1.001-.154 1.549 1.549 0 0 0-1.387.308zm9.016-2.917h-.925v-1.076h.925v1.076zm0 8.372h-.925v-6.606h.925v6.606zm7.32-5.838h-2.543v4.071c-.012.233.014.467.077.692.06.137.17.246.309.307.154 0 .308.077.539.077a.77.77 0 0 0 .77-.308c.133-.315.185-.658.155-.998v-.308h.924v.538c.017.455-.089.906-.308 1.306a1.675 1.675 0 0 1-1.541.615 3.028 3.028 0 0 1-1.387-.308 1.23 1.23 0 0 1-.463-.998v-4.609h-.924v-.768h.924v-1.613h.925v1.613h2.543v.691zm3.547 1.075c-.005-.42.073-.838.23-1.229a1.176 1.176 0 0 1 .926-.538c.477-.123.97-.174 1.464-.153a6.59 6.59 0 0 1 1.772.23 1.533 1.533 0 0 1 .925 1.383c0 .23.077.46.077.691v4.378h-.925l.077-.69c-.14.215-.323.398-.54.537a4.401 4.401 0 0 1-1.695.307 6.613 6.613 0 0 1-1.233-.077 2.378 2.378 0 0 1-.77-.384 1.68 1.68 0 0 1-.462-1.459c.013-.363.065-.724.154-1.076.098-.263.256-.5.462-.69a3.35 3.35 0 0 1 1.926-.385 6.48 6.48 0 0 1 1.696.23.698.698 0 0 1 .462.461v-.768a3.85 3.85 0 0 0-.154-1.306 1.208 1.208 0 0 0-.617-.46 2.989 2.989 0 0 0-1.078-.154c-.5-.081-1.014 0-1.464.23a.835.835 0 0 0-.309.692v.23h-.924zm1.001 1.767a1.008 1.008 0 0 0-.231.922 1.373 1.373 0 0 0 .308 1.075c.426.224.912.305 1.388.23a2.871 2.871 0 0 0 1.772-.384 1.145 1.145 0 0 0 .308-.845 1.208 1.208 0 0 0-.308-.998 2.387 2.387 0 0 0-1.618-.308 3.593 3.593 0 0 0-1.619.308zm9.248 2.996h-.925v-9.448h.925v9.448zm9.323-9.448h.924v3.687a1.096 1.096 0 0 1 .617-.691 4.023 4.023 0 0 1 1.618-.307 2.748 2.748 0 0 1 1.85.537c.326.338.54.767.616 1.23.09.584.141 1.175.154 1.766a13.578 13.578 0 0 1-.154 1.767c-.08.395-.299.748-.616.998a2.835 2.835 0 0 1-1.927.538 4.418 4.418 0 0 1-1.387-.23 1.55 1.55 0 0 1-.694-.692l.078.845h-.925l-.154-9.448zm1.54 3.84a1.353 1.353 0 0 0-.461.923c-.064.38-.09.766-.078 1.152-.012.539.014 1.078.078 1.613.02.282.128.55.308.768a1.862 1.862 0 0 0 1.541.461 2.32 2.32 0 0 0 1.387-.307c.231-.32.39-.688.462-1.076.064-.38.09-.766.078-1.152a9.256 9.256 0 0 0-.078-1.46 1.36 1.36 0 0 0-.308-.768 1.835 1.835 0 0 0-1.387-.383 2.524 2.524 0 0 0-1.541.23zm8.864-.999l-.078.768c.15-.3.394-.543.694-.692a3.21 3.21 0 0 1 1.233-.23 1.629 1.629 0 0 1 1.849 1.306v.998h-.924v-.537a2.292 2.292 0 0 0-.154-.692 1.06 1.06 0 0 0-.925-.306 1.292 1.292 0 0 0-1.387.69c-.17.414-.222.865-.154 1.306v3.918h-.925v-6.606h.77v.077zm6.858 1.844a3.18 3.18 0 0 1 .232-1.229 1.164 1.164 0 0 1 .924-.538 5.019 5.019 0 0 1 1.465-.153 6.59 6.59 0 0 1 1.772.23 1.533 1.533 0 0 1 .925 1.383c0 .23.077.46.077.691v4.378h-.925l.077-.69c-.14.215-.323.398-.54.537a4.405 4.405 0 0 1-1.695.307 6.613 6.613 0 0 1-1.233-.077 2.368 2.368 0 0 1-.77-.384 1.682 1.682 0 0 1-.463-1.459 5.21 5.21 0 0 1 .154-1.076c.099-.263.257-.5.463-.69a3.349 3.349 0 0 1 1.926-.385 6.48 6.48 0 0 1 1.696.23.698.698 0 0 1 .462.461v-.768a3.85 3.85 0 0 0-.154-1.306 1.208 1.208 0 0 0-.617-.46 2.989 2.989 0 0 0-1.078-.154c-.5-.081-1.014 0-1.465.23a.849.849 0 0 0-.237.31.82.82 0 0 0-.07.382v.23h-.926zm.925 1.767a1.015 1.015 0 0 0-.231.922 1.376 1.376 0 0 0 .308 1.075c.423.23.912.311 1.387.23a2.871 2.871 0 0 0 1.773-.384 1.16 1.16 0 0 0 .308-.845 1.208 1.208 0 0 0-.308-.998 2.39 2.39 0 0 0-1.619-.308 4.024 4.024 0 0 0-1.618.308zm9.246-3.611v.921c.082-.207.215-.392.385-.537a2.586 2.586 0 0 1 1.85-.461c1.078 0 1.849.307 2.157.845.232.477.313 1.012.231 1.536v4.301h-.924v-4.224a3.004 3.004 0 0 0-.154-1.152 1.537 1.537 0 0 0-1.387-.538 3.207 3.207 0 0 0-1.233.23 1.393 1.393 0 0 0-.771 1.076c0 .23-.077.384-.077.614v3.994h-1.002v-6.605h.925zm14.026 6.607h-1.002l.077-.845a1.81 1.81 0 0 1-.617.691 3.344 3.344 0 0 1-1.464.308 2.408 2.408 0 0 1-2.003-.692 2.525 2.525 0 0 1-.54-1.229c-.064-.51-.09-1.023-.077-1.536.013-.566.065-1.13.154-1.69.085-.376.271-.721.54-.998a2.822 2.822 0 0 1 1.85-.615 3.804 3.804 0 0 1 1.617.307c.239.146.427.36.54.615v-3.687h1l-.076 9.37zm-4.239-5.53c-.308.307-.462.998-.462 2.15-.067.763.065 1.53.385 2.228a1.708 1.708 0 0 0 1.464.46 1.911 1.911 0 0 0 1.541-.537 4.368 4.368 0 0 0 .309-2.228 3.065 3.065 0 0 0-.463-1.997 1.933 1.933 0 0 0-1.464-.384 1.485 1.485 0 0 0-1.31.308zm19.188 3.533v.307a1.454 1.454 0 0 1-.539 1.306 1.699 1.699 0 0 1-.925.384 4.705 4.705 0 0 1-1.464.077c-1.156 0-1.927-.23-2.312-.691a2.078 2.078 0 0 1-.462-1.306 8.304 8.304 0 0 1-.078-1.383c-.012-.539.013-1.078.078-1.613a1.97 1.97 0 0 1 .385-.922 1.494 1.494 0 0 1 1.079-.691 7.68 7.68 0 0 1 1.31-.154 4.244 4.244 0 0 1 1.926.308 2.184 2.184 0 0 1 .925 1.997v1.229h-4.778a6.891 6.891 0 0 0 .154 1.766.901.901 0 0 0 .848.615c.278.063.563.09.848.077.467.025.936-.027 1.387-.154a.67.67 0 0 0 .462-.691v-.461h1.156zm-1.156-3.303a1.08 1.08 0 0 0-.693-.614 3.733 3.733 0 0 0-.925-.077 3.202 3.202 0 0 0-1.233.153 1.28 1.28 0 0 0-.513.477 1.275 1.275 0 0 0-.181.676v.768h3.776c-.077-.384-.154-.922-.231-1.383zm5.703-1.307v.921c.083-.207.215-.392.386-.537a2.583 2.583 0 0 1 1.849-.461c1.079 0 1.849.307 2.158.845.231.477.312 1.012.231 1.536v4.301h-1.002v-4.224a2.985 2.985 0 0 0-.154-1.152 1.537 1.537 0 0 0-1.387-.538 3.214 3.214 0 0 0-1.233.23 1.401 1.401 0 0 0-.771 1.076c0 .23-.077.384-.077.614v3.994h-1.002v-6.605h1.002zm13.947 6.99a3.06 3.06 0 0 1-.309 1.613 2.091 2.091 0 0 1-.924.691 5.786 5.786 0 0 1-3.237 0 1.531 1.531 0 0 1-.925-1.229c0-.23-.077-.537-.077-.768h.925c.014.338.065.673.154.999a.836.836 0 0 0 .694.307c.308 0 .539.077.847.077.39-.013.777-.065 1.156-.154a.978.978 0 0 0 .617-.845c0-.153.077-.384.077-.537V32.8l-.231.46a.657.657 0 0 1-.386.231c-.473.152-.967.23-1.464.23a2.533 2.533 0 0 1-1.926-.614 2.415 2.415 0 0 1-.617-1.152 9.255 9.255 0 0 1-.077-1.46c-.038-.724.04-1.45.231-2.15a1.728 1.728 0 0 1 1.156-1.152 2.873 2.873 0 0 1 1.387-.154 3.137 3.137 0 0 1 1.464.307c.262.174.475.412.617.692l-.077-.922h.925v6.836zm-4.316-5.838a1.54 1.54 0 0 0-.308.999c0 .307-.077.691-.077 1.075a7.462 7.462 0 0 0 .154 1.844c.051.244.188.461.385.614.401.218.854.325 1.31.308a1.763 1.763 0 0 0 1.464-.538c.171-.28.277-.595.309-.922.064-.406.09-.818.077-1.229a9.262 9.262 0 0 0-.077-1.46 1.207 1.207 0 0 0-.771-.844 4.525 4.525 0 0 0-1.002-.154 1.64 1.64 0 0 0-1.464.307zm9.017-2.917h-.925v-1.076h.925v1.076zm0 8.372h-.925v-6.606h.925v6.606zm4.778-6.607v.921c.083-.207.215-.392.385-.537a2.586 2.586 0 0 1 1.85-.461c1.079 0 1.849.307 2.157.845.232.477.313 1.012.232 1.536v4.301h-.925v-4.224a2.985 2.985 0 0 0-.154-1.152 1.537 1.537 0 0 0-1.387-.538 3.207 3.207 0 0 0-1.233.23 1.401 1.401 0 0 0-.771 1.076c0 .23-.077.384-.077.614v3.994h-1.002v-6.605h.925zm13.947 4.61v.307a1.454 1.454 0 0 1-.539 1.306 1.699 1.699 0 0 1-.925.384 4.705 4.705 0 0 1-1.464.077c-1.156 0-1.927-.23-2.312-.691a2.084 2.084 0 0 1-.462-1.306 8.303 8.303 0 0 1-.077-1.383c-.013-.539.013-1.078.077-1.613a1.97 1.97 0 0 1 .385-.922 1.497 1.497 0 0 1 1.079-.691c.431-.089.87-.14 1.31-.154a4.244 4.244 0 0 1 1.926.308 2.184 2.184 0 0 1 .925 1.997v1.229h-4.778a6.847 6.847 0 0 0 .155 1.766.895.895 0 0 0 .847.615c.278.063.563.09.848.077.468.025.936-.027 1.387-.154a.67.67 0 0 0 .462-.691v-.461h1.156zm-1.079-3.303a1.08 1.08 0 0 0-.693-.614 3.733 3.733 0 0 0-.925-.077 3.202 3.202 0 0 0-1.233.153 1.272 1.272 0 0 0-.693 1.153v.768h3.776c-.078-.384-.155-.922-.232-1.383zm10.326 3.303v.307a1.453 1.453 0 0 1-.539 1.306 1.699 1.699 0 0 1-.925.384 4.705 4.705 0 0 1-1.464.077c-1.156 0-1.926-.23-2.312-.691a2.09 2.09 0 0 1-.462-1.306 8.303 8.303 0 0 1-.077-1.383c-.013-.539.013-1.078.077-1.613a1.98 1.98 0 0 1 .385-.922 1.497 1.497 0 0 1 1.079-.691c.431-.089.87-.14 1.31-.154a4.25 4.25 0 0 1 1.927.308 2.179 2.179 0 0 1 .924 1.997v1.229h-4.777a6.847 6.847 0 0 0 .154 1.766.895.895 0 0 0 .847.615c.278.063.563.09.848.077.468.025.936-.027 1.387-.154a.67.67 0 0 0 .462-.691v-.461h1.156zm-1.156-3.303a1.08 1.08 0 0 0-.693-.614 3.733 3.733 0 0 0-.925-.077 3.202 3.202 0 0 0-1.233.153 1.272 1.272 0 0 0-.693 1.153v.768h3.776c-.077-.384-.155-.922-.232-1.383zm5.78-1.307l-.078.768c.15-.3.393-.543.694-.692a3.214 3.214 0 0 1 1.233-.23 1.629 1.629 0 0 1 1.849 1.306v.998h-.924v-.537a2.292 2.292 0 0 0-.154-.692 1.06 1.06 0 0 0-.925-.306 1.292 1.292 0 0 0-1.387.69 2.461 2.461 0 0 0-.154 1.306v3.918h-.925v-6.606h.771v.077zm7.784-1.765h-.925v-1.076h.925v1.076zm0 8.372h-.925v-6.606h.925v6.606zm4.778-6.607v.921c.083-.207.215-.392.385-.537a2.586 2.586 0 0 1 1.85-.461c1.079 0 1.849.307 2.158.845.231.477.312 1.012.231 1.536v4.301h-.925v-4.224a2.985 2.985 0 0 0-.154-1.152 1.537 1.537 0 0 0-1.387-.538 3.214 3.214 0 0 0-1.233.23 1.401 1.401 0 0 0-.771 1.076c0 .23-.077.384-.077.614v3.994h-1.002v-6.605h.925zm13.947 6.99a3.07 3.07 0 0 1-.308 1.613 2.1 2.1 0 0 1-.925.691 5.786 5.786 0 0 1-3.237 0 1.538 1.538 0 0 1-.924-1.229 2.535 2.535 0 0 1 0-.768h.924a4.5 4.5 0 0 0 .155.999.838.838 0 0 0 .693.307c.308 0 .54.077.848.077a5.939 5.939 0 0 0 1.156-.154.976.976 0 0 0 .616-.845v-1.843l-.231.46a.655.655 0 0 1-.385.231 4.79 4.79 0 0 1-1.464.23 2.538 2.538 0 0 1-1.927-.614 2.404 2.404 0 0 1-.616-1.152 9.256 9.256 0 0 1-.078-1.46 6.761 6.761 0 0 1 .155-2.15c.082-.272.231-.52.433-.72.201-.202.45-.35.723-.432a2.872 2.872 0 0 1 1.387-.154 3.14 3.14 0 0 1 1.464.307c.262.174.474.412.616.692l-.077-.922h.925l.077 6.836zm-4.315-5.838c-.206.299-.338.64-.386.999v1.075a7.51 7.51 0 0 0 .154 1.844c.052.244.188.461.386.614.401.218.853.325 1.31.308a1.766 1.766 0 0 0 1.464-.538c.171-.28.276-.595.308-.922.064-.406.09-.818.077-1.229a9.262 9.262 0 0 0-.077-1.46 1.197 1.197 0 0 0-.279-.518 1.195 1.195 0 0 0-.492-.326 4.525 4.525 0 0 0-1.001-.154 1.586 1.586 0 0 0-1.464.308z"/><path fill="#7EA2D1" d="M253.835.003h-10.788a5.903 5.903 0 0 0-3.237.922 6.185 6.185 0 0 1 2.852 5.07l-.077 7.604a5.996 5.996 0 0 1-2.852 5.069 5.792 5.792 0 0 0 3.391.922h10.711a6.07 6.07 0 0 0 4.339-1.712A6.026 6.026 0 0 0 260 13.599V5.995a6.023 6.023 0 0 0-3.823-5.57 6.07 6.07 0 0 0-2.342-.422z"/><path fill="#0066AC" d="M239.811.933a5.967 5.967 0 0 0-3.314-.93h-10.788a6.17 6.17 0 0 0-3.314.999 6.268 6.268 0 0 1 2.774 4.993v7.604a5.712 5.712 0 0 1-2.774 4.993c1.015.64 2.19.986 3.391.998h10.634a6.663 6.663 0 0 0 3.314-.922 6.007 6.007 0 0 0 2.851-5.069l.077-7.604a6.17 6.17 0 0 0-2.851-5.062z"/><path fill="#00458A" d="M222.395 1.008a6.482 6.482 0 0 0-3.391-1.006h-10.788a6.102 6.102 0 0 0-4.278 1.75 6.064 6.064 0 0 0-1.81 4.241v7.682a6.062 6.062 0 0 0 1.865 4.218 6.091 6.091 0 0 0 4.3 1.696h10.711a6.48 6.48 0 0 0 3.391-.998 5.727 5.727 0 0 0 2.058-2.126 5.693 5.693 0 0 0 .716-2.867V6a6.038 6.038 0 0 0-.76-2.842 6.068 6.068 0 0 0-2.014-2.15z"/><path fill="#00539F" d="M242.583 13.605l.078-7.604a6.184 6.184 0 0 0-2.852-5.07 6.023 6.023 0 0 0-2.081 2.168 5.99 5.99 0 0 0-.77 2.902v7.681c.034.991.303 1.96.786 2.829a6.295 6.295 0 0 0 1.988 2.164 6.025 6.025 0 0 0 2.082-2.168 5.988 5.988 0 0 0 .769-2.902z"/><path fill="#00327B" d="M225.168 13.607V6.003a6.039 6.039 0 0 0-.76-2.843 6.077 6.077 0 0 0-2.014-2.15 6.08 6.08 0 0 0-2.774 4.992v7.682a6.036 6.036 0 0 0 2.774 4.916 5.72 5.72 0 0 0 2.058-2.126 5.693 5.693 0 0 0 .716-2.867z"/></g><defs><clipPath id="clip0"><path fill="#fff" d="M0 0h260v36.491H0z"/></clipPath></defs></svg>